<mxfile host="app.diagrams.net" agent="Mozilla/5.0 (X11; Linux x86_64; rv:131.0) Gecko/20100101 Firefox/131.0" version="24.8.3">
  <diagram name="Page-1" id="IhU7U-GhpSI_R_UBtzR_">
    <mxGraphModel dx="2327" dy="2133" grid="1" gridSize="10" guides="1" tooltips="1" connect="1" arrows="1" fold="1" page="1" pageScale="1" pageWidth="827" pageHeight="1169" math="0" shadow="0">
      <root>
        <mxCell id="0" />
        <mxCell id="1" parent="0" />
        <mxCell id="h5w_cuXaBeAwEYULJlHb-22" style="rounded=0;orthogonalLoop=1;jettySize=auto;html=1;entryX=0;entryY=0.5;entryDx=0;entryDy=0;endArrow=none;endFill=0;exitX=0.5;exitY=0;exitDx=0;exitDy=0;" edge="1" parent="1" source="h5w_cuXaBeAwEYULJlHb-1" target="h5w_cuXaBeAwEYULJlHb-21">
          <mxGeometry relative="1" as="geometry" />
        </mxCell>
        <mxCell id="h5w_cuXaBeAwEYULJlHb-24" value="N" style="edgeLabel;html=1;align=center;verticalAlign=middle;resizable=0;points=[];" vertex="1" connectable="0" parent="h5w_cuXaBeAwEYULJlHb-22">
          <mxGeometry x="-0.337" y="1" relative="1" as="geometry">
            <mxPoint x="-8" y="3" as="offset" />
          </mxGeometry>
        </mxCell>
        <mxCell id="h5w_cuXaBeAwEYULJlHb-1" value="users" style="whiteSpace=wrap;html=1;align=center;" vertex="1" parent="1">
          <mxGeometry x="110" y="230" width="100" height="40" as="geometry" />
        </mxCell>
        <mxCell id="h5w_cuXaBeAwEYULJlHb-16" style="edgeStyle=orthogonalEdgeStyle;rounded=0;orthogonalLoop=1;jettySize=auto;html=1;entryX=0;entryY=0.5;entryDx=0;entryDy=0;endArrow=none;endFill=0;" edge="1" parent="1" source="h5w_cuXaBeAwEYULJlHb-2" target="h5w_cuXaBeAwEYULJlHb-1">
          <mxGeometry relative="1" as="geometry" />
        </mxCell>
        <mxCell id="h5w_cuXaBeAwEYULJlHb-2" value="id" style="ellipse;whiteSpace=wrap;html=1;align=center;" vertex="1" parent="1">
          <mxGeometry x="-40" y="80" width="100" height="40" as="geometry" />
        </mxCell>
        <mxCell id="h5w_cuXaBeAwEYULJlHb-15" style="edgeStyle=orthogonalEdgeStyle;rounded=0;orthogonalLoop=1;jettySize=auto;html=1;entryX=0;entryY=0.5;entryDx=0;entryDy=0;endArrow=none;endFill=0;" edge="1" parent="1" source="h5w_cuXaBeAwEYULJlHb-3" target="h5w_cuXaBeAwEYULJlHb-1">
          <mxGeometry relative="1" as="geometry" />
        </mxCell>
        <mxCell id="h5w_cuXaBeAwEYULJlHb-3" value="first_name" style="ellipse;whiteSpace=wrap;html=1;align=center;" vertex="1" parent="1">
          <mxGeometry x="-40" y="140" width="100" height="40" as="geometry" />
        </mxCell>
        <mxCell id="h5w_cuXaBeAwEYULJlHb-14" style="edgeStyle=orthogonalEdgeStyle;rounded=0;orthogonalLoop=1;jettySize=auto;html=1;entryX=0;entryY=0.5;entryDx=0;entryDy=0;strokeColor=default;curved=0;endArrow=none;endFill=0;" edge="1" parent="1" source="h5w_cuXaBeAwEYULJlHb-4" target="h5w_cuXaBeAwEYULJlHb-1">
          <mxGeometry relative="1" as="geometry" />
        </mxCell>
        <mxCell id="h5w_cuXaBeAwEYULJlHb-4" value="last_name" style="ellipse;whiteSpace=wrap;html=1;align=center;" vertex="1" parent="1">
          <mxGeometry x="-40" y="200" width="100" height="40" as="geometry" />
        </mxCell>
        <mxCell id="h5w_cuXaBeAwEYULJlHb-17" style="edgeStyle=orthogonalEdgeStyle;rounded=0;orthogonalLoop=1;jettySize=auto;html=1;entryX=0;entryY=0.5;entryDx=0;entryDy=0;endArrow=none;endFill=0;" edge="1" parent="1" source="h5w_cuXaBeAwEYULJlHb-5" target="h5w_cuXaBeAwEYULJlHb-1">
          <mxGeometry relative="1" as="geometry" />
        </mxCell>
        <mxCell id="h5w_cuXaBeAwEYULJlHb-5" value="username" style="ellipse;whiteSpace=wrap;html=1;align=center;" vertex="1" parent="1">
          <mxGeometry x="-40" y="260" width="100" height="40" as="geometry" />
        </mxCell>
        <mxCell id="h5w_cuXaBeAwEYULJlHb-18" style="edgeStyle=orthogonalEdgeStyle;rounded=0;orthogonalLoop=1;jettySize=auto;html=1;entryX=0;entryY=0.5;entryDx=0;entryDy=0;endArrow=none;endFill=0;" edge="1" parent="1" source="h5w_cuXaBeAwEYULJlHb-6" target="h5w_cuXaBeAwEYULJlHb-1">
          <mxGeometry relative="1" as="geometry" />
        </mxCell>
        <mxCell id="h5w_cuXaBeAwEYULJlHb-6" value="&lt;div&gt;password&lt;/div&gt;" style="ellipse;whiteSpace=wrap;html=1;align=center;" vertex="1" parent="1">
          <mxGeometry x="-40" y="320" width="100" height="40" as="geometry" />
        </mxCell>
        <mxCell id="h5w_cuXaBeAwEYULJlHb-19" style="edgeStyle=orthogonalEdgeStyle;rounded=0;orthogonalLoop=1;jettySize=auto;html=1;entryX=0;entryY=0.5;entryDx=0;entryDy=0;endArrow=none;endFill=0;" edge="1" parent="1" source="h5w_cuXaBeAwEYULJlHb-7" target="h5w_cuXaBeAwEYULJlHb-1">
          <mxGeometry relative="1" as="geometry" />
        </mxCell>
        <mxCell id="h5w_cuXaBeAwEYULJlHb-7" value="email" style="ellipse;whiteSpace=wrap;html=1;align=center;" vertex="1" parent="1">
          <mxGeometry x="-40" y="380" width="100" height="40" as="geometry" />
        </mxCell>
        <mxCell id="h5w_cuXaBeAwEYULJlHb-20" value="roles" style="whiteSpace=wrap;html=1;align=center;" vertex="1" parent="1">
          <mxGeometry x="109" y="-10" width="100" height="40" as="geometry" />
        </mxCell>
        <mxCell id="h5w_cuXaBeAwEYULJlHb-21" value="has" style="shape=rhombus;perimeter=rhombusPerimeter;whiteSpace=wrap;html=1;align=center;rotation=-90;direction=east;" vertex="1" parent="1">
          <mxGeometry x="100" y="100" width="120" height="60" as="geometry" />
        </mxCell>
        <mxCell id="h5w_cuXaBeAwEYULJlHb-23" style="rounded=0;orthogonalLoop=1;jettySize=auto;html=1;entryX=0.5;entryY=1;entryDx=0;entryDy=0;endArrow=none;endFill=0;exitX=1;exitY=0.5;exitDx=0;exitDy=0;" edge="1" parent="1" source="h5w_cuXaBeAwEYULJlHb-21" target="h5w_cuXaBeAwEYULJlHb-20">
          <mxGeometry relative="1" as="geometry">
            <mxPoint x="280" y="160" as="sourcePoint" />
            <mxPoint x="318" y="132" as="targetPoint" />
          </mxGeometry>
        </mxCell>
        <mxCell id="h5w_cuXaBeAwEYULJlHb-25" value="&lt;div&gt;1&lt;/div&gt;" style="edgeLabel;html=1;align=center;verticalAlign=middle;resizable=0;points=[];" vertex="1" connectable="0" parent="h5w_cuXaBeAwEYULJlHb-23">
          <mxGeometry x="0.5431" relative="1" as="geometry">
            <mxPoint x="6" y="1" as="offset" />
          </mxGeometry>
        </mxCell>
        <mxCell id="h5w_cuXaBeAwEYULJlHb-28" style="edgeStyle=orthogonalEdgeStyle;rounded=0;orthogonalLoop=1;jettySize=auto;html=1;endArrow=none;endFill=0;" edge="1" parent="1" source="h5w_cuXaBeAwEYULJlHb-26" target="h5w_cuXaBeAwEYULJlHb-20">
          <mxGeometry relative="1" as="geometry" />
        </mxCell>
        <mxCell id="h5w_cuXaBeAwEYULJlHb-26" value="id" style="ellipse;whiteSpace=wrap;html=1;align=center;" vertex="1" parent="1">
          <mxGeometry x="55" y="-100" width="100" height="40" as="geometry" />
        </mxCell>
        <mxCell id="h5w_cuXaBeAwEYULJlHb-29" style="edgeStyle=orthogonalEdgeStyle;rounded=0;orthogonalLoop=1;jettySize=auto;html=1;endArrow=none;endFill=0;" edge="1" parent="1" source="h5w_cuXaBeAwEYULJlHb-27" target="h5w_cuXaBeAwEYULJlHb-20">
          <mxGeometry relative="1" as="geometry" />
        </mxCell>
        <mxCell id="h5w_cuXaBeAwEYULJlHb-27" value="name" style="ellipse;whiteSpace=wrap;html=1;align=center;" vertex="1" parent="1">
          <mxGeometry x="165" y="-100" width="100" height="40" as="geometry" />
        </mxCell>
        <mxCell id="h5w_cuXaBeAwEYULJlHb-31" value="contract_type" style="whiteSpace=wrap;html=1;align=center;" vertex="1" parent="1">
          <mxGeometry x="994" y="230" width="100" height="40" as="geometry" />
        </mxCell>
        <mxCell id="h5w_cuXaBeAwEYULJlHb-34" style="edgeStyle=orthogonalEdgeStyle;rounded=0;orthogonalLoop=1;jettySize=auto;html=1;endArrow=none;endFill=0;" edge="1" parent="1" source="h5w_cuXaBeAwEYULJlHb-35" target="h5w_cuXaBeAwEYULJlHb-31">
          <mxGeometry relative="1" as="geometry" />
        </mxCell>
        <mxCell id="h5w_cuXaBeAwEYULJlHb-35" value="id" style="ellipse;whiteSpace=wrap;html=1;align=center;" vertex="1" parent="1">
          <mxGeometry x="1140" y="190" width="100" height="40" as="geometry" />
        </mxCell>
        <mxCell id="h5w_cuXaBeAwEYULJlHb-36" style="edgeStyle=orthogonalEdgeStyle;rounded=0;orthogonalLoop=1;jettySize=auto;html=1;endArrow=none;endFill=0;" edge="1" parent="1" source="h5w_cuXaBeAwEYULJlHb-37" target="h5w_cuXaBeAwEYULJlHb-31">
          <mxGeometry relative="1" as="geometry" />
        </mxCell>
        <mxCell id="h5w_cuXaBeAwEYULJlHb-37" value="name" style="ellipse;whiteSpace=wrap;html=1;align=center;" vertex="1" parent="1">
          <mxGeometry x="1141" y="270" width="100" height="40" as="geometry" />
        </mxCell>
        <mxCell id="h5w_cuXaBeAwEYULJlHb-38" value="product_type" style="whiteSpace=wrap;html=1;align=center;" vertex="1" parent="1">
          <mxGeometry x="924" y="46.18" width="100" height="40" as="geometry" />
        </mxCell>
        <mxCell id="h5w_cuXaBeAwEYULJlHb-41" style="edgeStyle=orthogonalEdgeStyle;rounded=0;orthogonalLoop=1;jettySize=auto;html=1;endArrow=none;endFill=0;" edge="1" parent="1" source="h5w_cuXaBeAwEYULJlHb-42" target="h5w_cuXaBeAwEYULJlHb-38">
          <mxGeometry relative="1" as="geometry" />
        </mxCell>
        <mxCell id="h5w_cuXaBeAwEYULJlHb-42" value="id" style="ellipse;whiteSpace=wrap;html=1;align=center;" vertex="1" parent="1">
          <mxGeometry x="1080" y="10" width="100" height="40" as="geometry" />
        </mxCell>
        <mxCell id="h5w_cuXaBeAwEYULJlHb-43" style="edgeStyle=orthogonalEdgeStyle;rounded=0;orthogonalLoop=1;jettySize=auto;html=1;endArrow=none;endFill=0;" edge="1" parent="1" source="h5w_cuXaBeAwEYULJlHb-44" target="h5w_cuXaBeAwEYULJlHb-38">
          <mxGeometry relative="1" as="geometry" />
        </mxCell>
        <mxCell id="h5w_cuXaBeAwEYULJlHb-44" value="name" style="ellipse;whiteSpace=wrap;html=1;align=center;" vertex="1" parent="1">
          <mxGeometry x="1080" y="80" width="100" height="40" as="geometry" />
        </mxCell>
        <mxCell id="h5w_cuXaBeAwEYULJlHb-45" value="listings" style="whiteSpace=wrap;html=1;align=center;" vertex="1" parent="1">
          <mxGeometry x="679" y="230" width="100" height="40" as="geometry" />
        </mxCell>
        <mxCell id="h5w_cuXaBeAwEYULJlHb-90" style="edgeStyle=orthogonalEdgeStyle;rounded=0;orthogonalLoop=1;jettySize=auto;html=1;entryX=0.5;entryY=0;entryDx=0;entryDy=0;endArrow=none;endFill=0;" edge="1" parent="1" source="h5w_cuXaBeAwEYULJlHb-47" target="h5w_cuXaBeAwEYULJlHb-45">
          <mxGeometry relative="1" as="geometry" />
        </mxCell>
        <mxCell id="h5w_cuXaBeAwEYULJlHb-47" value="id" style="ellipse;whiteSpace=wrap;html=1;align=center;" vertex="1" parent="1">
          <mxGeometry x="740" y="70" width="100" height="40" as="geometry" />
        </mxCell>
        <mxCell id="h5w_cuXaBeAwEYULJlHb-92" style="edgeStyle=orthogonalEdgeStyle;rounded=0;orthogonalLoop=1;jettySize=auto;html=1;endArrow=none;endFill=0;entryX=0.5;entryY=0;entryDx=0;entryDy=0;" edge="1" parent="1" source="h5w_cuXaBeAwEYULJlHb-51" target="h5w_cuXaBeAwEYULJlHb-45">
          <mxGeometry relative="1" as="geometry">
            <mxPoint x="680" y="250" as="targetPoint" />
          </mxGeometry>
        </mxCell>
        <mxCell id="h5w_cuXaBeAwEYULJlHb-96" style="edgeStyle=orthogonalEdgeStyle;rounded=0;orthogonalLoop=1;jettySize=auto;html=1;endArrow=none;endFill=0;" edge="1" parent="1" source="h5w_cuXaBeAwEYULJlHb-49">
          <mxGeometry relative="1" as="geometry">
            <mxPoint x="730" y="229.99999999999977" as="targetPoint" />
          </mxGeometry>
        </mxCell>
        <mxCell id="h5w_cuXaBeAwEYULJlHb-49" value="title" style="ellipse;whiteSpace=wrap;html=1;align=center;" vertex="1" parent="1">
          <mxGeometry x="680" width="100" height="40" as="geometry" />
        </mxCell>
        <mxCell id="h5w_cuXaBeAwEYULJlHb-93" style="edgeStyle=orthogonalEdgeStyle;rounded=0;orthogonalLoop=1;jettySize=auto;html=1;entryX=0.5;entryY=0;entryDx=0;entryDy=0;endArrow=none;endFill=0;" edge="1" parent="1" source="h5w_cuXaBeAwEYULJlHb-51" target="h5w_cuXaBeAwEYULJlHb-45">
          <mxGeometry relative="1" as="geometry" />
        </mxCell>
        <mxCell id="h5w_cuXaBeAwEYULJlHb-59" style="rounded=0;orthogonalLoop=1;jettySize=auto;html=1;entryX=0;entryY=0.5;entryDx=0;entryDy=0;endArrow=none;endFill=0;exitX=1;exitY=0.5;exitDx=0;exitDy=0;" edge="1" parent="1" target="h5w_cuXaBeAwEYULJlHb-61" source="h5w_cuXaBeAwEYULJlHb-45">
          <mxGeometry relative="1" as="geometry">
            <mxPoint x="1111" y="410" as="sourcePoint" />
          </mxGeometry>
        </mxCell>
        <mxCell id="h5w_cuXaBeAwEYULJlHb-60" value="N" style="edgeLabel;html=1;align=center;verticalAlign=middle;resizable=0;points=[];" vertex="1" connectable="0" parent="h5w_cuXaBeAwEYULJlHb-59">
          <mxGeometry x="-0.337" y="1" relative="1" as="geometry">
            <mxPoint x="-5" y="11" as="offset" />
          </mxGeometry>
        </mxCell>
        <mxCell id="h5w_cuXaBeAwEYULJlHb-61" value="is of type" style="shape=rhombus;perimeter=rhombusPerimeter;whiteSpace=wrap;html=1;align=center;rotation=0;direction=east;" vertex="1" parent="1">
          <mxGeometry x="827" y="220" width="120" height="60" as="geometry" />
        </mxCell>
        <mxCell id="h5w_cuXaBeAwEYULJlHb-62" style="rounded=0;orthogonalLoop=1;jettySize=auto;html=1;endArrow=none;endFill=0;exitX=1;exitY=0.5;exitDx=0;exitDy=0;entryX=0;entryY=0.5;entryDx=0;entryDy=0;" edge="1" parent="1" source="h5w_cuXaBeAwEYULJlHb-61" target="h5w_cuXaBeAwEYULJlHb-31">
          <mxGeometry relative="1" as="geometry">
            <mxPoint x="947" y="246.18" as="sourcePoint" />
            <mxPoint x="1181" y="256.18" as="targetPoint" />
          </mxGeometry>
        </mxCell>
        <mxCell id="h5w_cuXaBeAwEYULJlHb-63" value="&lt;div&gt;1&lt;/div&gt;" style="edgeLabel;html=1;align=center;verticalAlign=middle;resizable=0;points=[];" vertex="1" connectable="0" parent="h5w_cuXaBeAwEYULJlHb-62">
          <mxGeometry x="0.5431" relative="1" as="geometry">
            <mxPoint x="-3" y="10" as="offset" />
          </mxGeometry>
        </mxCell>
        <mxCell id="h5w_cuXaBeAwEYULJlHb-64" value="&lt;div&gt;location&lt;/div&gt;" style="whiteSpace=wrap;html=1;align=center;" vertex="1" parent="1">
          <mxGeometry x="924" y="410" width="100" height="40" as="geometry" />
        </mxCell>
        <mxCell id="h5w_cuXaBeAwEYULJlHb-72" style="rounded=0;orthogonalLoop=1;jettySize=auto;html=1;entryX=0;entryY=0.5;entryDx=0;entryDy=0;endArrow=none;endFill=0;exitX=1;exitY=0;exitDx=0;exitDy=0;" edge="1" parent="1" target="h5w_cuXaBeAwEYULJlHb-74" source="h5w_cuXaBeAwEYULJlHb-45">
          <mxGeometry relative="1" as="geometry">
            <mxPoint x="779" y="224.99999999999977" as="sourcePoint" />
          </mxGeometry>
        </mxCell>
        <mxCell id="h5w_cuXaBeAwEYULJlHb-73" value="N" style="edgeLabel;html=1;align=center;verticalAlign=middle;resizable=0;points=[];" vertex="1" connectable="0" parent="h5w_cuXaBeAwEYULJlHb-72">
          <mxGeometry x="-0.337" y="1" relative="1" as="geometry">
            <mxPoint x="-18" y="-3" as="offset" />
          </mxGeometry>
        </mxCell>
        <mxCell id="h5w_cuXaBeAwEYULJlHb-74" value="is of type" style="shape=rhombus;perimeter=rhombusPerimeter;whiteSpace=wrap;html=1;align=center;rotation=-45;direction=east;" vertex="1" parent="1">
          <mxGeometry x="790" y="130" width="120" height="60" as="geometry" />
        </mxCell>
        <mxCell id="h5w_cuXaBeAwEYULJlHb-75" style="rounded=0;orthogonalLoop=1;jettySize=auto;html=1;endArrow=none;endFill=0;exitX=1;exitY=0.5;exitDx=0;exitDy=0;entryX=0.012;entryY=0.982;entryDx=0;entryDy=0;entryPerimeter=0;" edge="1" parent="1" source="h5w_cuXaBeAwEYULJlHb-74" target="h5w_cuXaBeAwEYULJlHb-38">
          <mxGeometry relative="1" as="geometry">
            <mxPoint x="902.4264068711927" y="77.57359312880726" as="sourcePoint" />
            <mxPoint x="950" y="60" as="targetPoint" />
          </mxGeometry>
        </mxCell>
        <mxCell id="h5w_cuXaBeAwEYULJlHb-76" value="&lt;div&gt;1&lt;/div&gt;" style="edgeLabel;html=1;align=center;verticalAlign=middle;resizable=0;points=[];" vertex="1" connectable="0" parent="h5w_cuXaBeAwEYULJlHb-75">
          <mxGeometry x="0.5431" relative="1" as="geometry">
            <mxPoint x="11" y="8" as="offset" />
          </mxGeometry>
        </mxCell>
        <mxCell id="h5w_cuXaBeAwEYULJlHb-78" style="rounded=0;orthogonalLoop=1;jettySize=auto;html=1;entryX=0;entryY=0.5;entryDx=0;entryDy=0;endArrow=none;endFill=0;exitX=1;exitY=1;exitDx=0;exitDy=0;" edge="1" parent="1" target="h5w_cuXaBeAwEYULJlHb-80" source="h5w_cuXaBeAwEYULJlHb-45">
          <mxGeometry relative="1" as="geometry">
            <mxPoint x="643" y="462.5" as="sourcePoint" />
          </mxGeometry>
        </mxCell>
        <mxCell id="h5w_cuXaBeAwEYULJlHb-79" value="N" style="edgeLabel;html=1;align=center;verticalAlign=middle;resizable=0;points=[];" vertex="1" connectable="0" parent="h5w_cuXaBeAwEYULJlHb-78">
          <mxGeometry x="-0.337" y="1" relative="1" as="geometry">
            <mxPoint x="-18" y="1" as="offset" />
          </mxGeometry>
        </mxCell>
        <mxCell id="h5w_cuXaBeAwEYULJlHb-80" value="is located in" style="shape=rhombus;perimeter=rhombusPerimeter;whiteSpace=wrap;html=1;align=center;rotation=45;direction=east;" vertex="1" parent="1">
          <mxGeometry x="790" y="310" width="120" height="60" as="geometry" />
        </mxCell>
        <mxCell id="h5w_cuXaBeAwEYULJlHb-81" style="rounded=0;orthogonalLoop=1;jettySize=auto;html=1;endArrow=none;endFill=0;exitX=1;exitY=0.5;exitDx=0;exitDy=0;entryX=0;entryY=0;entryDx=0;entryDy=0;" edge="1" parent="1" source="h5w_cuXaBeAwEYULJlHb-80" target="h5w_cuXaBeAwEYULJlHb-64">
          <mxGeometry relative="1" as="geometry">
            <mxPoint x="766.4264068711927" y="310.07359312880726" as="sourcePoint" />
            <mxPoint x="789" y="317.5" as="targetPoint" />
          </mxGeometry>
        </mxCell>
        <mxCell id="h5w_cuXaBeAwEYULJlHb-82" value="&lt;div&gt;1&lt;/div&gt;" style="edgeLabel;html=1;align=center;verticalAlign=middle;resizable=0;points=[];" vertex="1" connectable="0" parent="h5w_cuXaBeAwEYULJlHb-81">
          <mxGeometry x="0.5431" relative="1" as="geometry">
            <mxPoint x="-7" y="16" as="offset" />
          </mxGeometry>
        </mxCell>
        <mxCell id="h5w_cuXaBeAwEYULJlHb-86" style="edgeStyle=orthogonalEdgeStyle;rounded=0;orthogonalLoop=1;jettySize=auto;html=1;entryX=1;entryY=0.5;entryDx=0;entryDy=0;endArrow=none;endFill=0;" edge="1" parent="1" source="h5w_cuXaBeAwEYULJlHb-83" target="h5w_cuXaBeAwEYULJlHb-64">
          <mxGeometry relative="1" as="geometry" />
        </mxCell>
        <mxCell id="h5w_cuXaBeAwEYULJlHb-83" value="id" style="ellipse;whiteSpace=wrap;html=1;align=center;" vertex="1" parent="1">
          <mxGeometry x="1080" y="350" width="100" height="40" as="geometry" />
        </mxCell>
        <mxCell id="h5w_cuXaBeAwEYULJlHb-87" style="edgeStyle=orthogonalEdgeStyle;rounded=0;orthogonalLoop=1;jettySize=auto;html=1;entryX=1;entryY=0.5;entryDx=0;entryDy=0;endArrow=none;endFill=0;" edge="1" parent="1" source="h5w_cuXaBeAwEYULJlHb-84" target="h5w_cuXaBeAwEYULJlHb-64">
          <mxGeometry relative="1" as="geometry" />
        </mxCell>
        <mxCell id="h5w_cuXaBeAwEYULJlHb-84" value="country" style="ellipse;whiteSpace=wrap;html=1;align=center;" vertex="1" parent="1">
          <mxGeometry x="1080" y="410" width="100" height="40" as="geometry" />
        </mxCell>
        <mxCell id="h5w_cuXaBeAwEYULJlHb-88" style="edgeStyle=orthogonalEdgeStyle;rounded=0;orthogonalLoop=1;jettySize=auto;html=1;entryX=1;entryY=0.5;entryDx=0;entryDy=0;endArrow=none;endFill=0;" edge="1" parent="1" source="h5w_cuXaBeAwEYULJlHb-85" target="h5w_cuXaBeAwEYULJlHb-64">
          <mxGeometry relative="1" as="geometry" />
        </mxCell>
        <mxCell id="h5w_cuXaBeAwEYULJlHb-85" value="state" style="ellipse;whiteSpace=wrap;html=1;align=center;" vertex="1" parent="1">
          <mxGeometry x="1080" y="470" width="100" height="40" as="geometry" />
        </mxCell>
        <mxCell id="h5w_cuXaBeAwEYULJlHb-51" value="price" style="ellipse;whiteSpace=wrap;html=1;align=center;" vertex="1" parent="1">
          <mxGeometry x="620" y="70" width="100" height="40" as="geometry" />
        </mxCell>
        <mxCell id="h5w_cuXaBeAwEYULJlHb-97" value="order" style="whiteSpace=wrap;html=1;align=center;" vertex="1" parent="1">
          <mxGeometry x="387" y="230" width="100" height="40" as="geometry" />
        </mxCell>
        <mxCell id="h5w_cuXaBeAwEYULJlHb-98" value="" style="rounded=0;orthogonalLoop=1;jettySize=auto;html=1;entryX=0;entryY=0.5;entryDx=0;entryDy=0;endArrow=none;endFill=0;exitX=0.983;exitY=0.116;exitDx=0;exitDy=0;exitPerimeter=0;" edge="1" parent="1" target="h5w_cuXaBeAwEYULJlHb-100" source="h5w_cuXaBeAwEYULJlHb-1">
          <mxGeometry relative="1" as="geometry">
            <mxPoint x="350" y="259.95" as="sourcePoint" />
          </mxGeometry>
        </mxCell>
        <mxCell id="h5w_cuXaBeAwEYULJlHb-99" value="1" style="edgeLabel;html=1;align=center;verticalAlign=middle;resizable=0;points=[];" vertex="1" connectable="0" parent="h5w_cuXaBeAwEYULJlHb-98">
          <mxGeometry x="-0.337" y="1" relative="1" as="geometry">
            <mxPoint x="12" y="10" as="offset" />
          </mxGeometry>
        </mxCell>
        <mxCell id="h5w_cuXaBeAwEYULJlHb-100" value="sells" style="shape=rhombus;perimeter=rhombusPerimeter;whiteSpace=wrap;html=1;align=center;rotation=0;direction=east;" vertex="1" parent="1">
          <mxGeometry x="240" y="130" width="120" height="60" as="geometry" />
        </mxCell>
        <mxCell id="h5w_cuXaBeAwEYULJlHb-102" value="" style="endArrow=none;html=1;rounded=0;exitX=1;exitY=0.5;exitDx=0;exitDy=0;entryX=0;entryY=0;entryDx=0;entryDy=0;" edge="1" parent="1" source="h5w_cuXaBeAwEYULJlHb-100" target="h5w_cuXaBeAwEYULJlHb-97">
          <mxGeometry relative="1" as="geometry">
            <mxPoint x="560" y="240" as="sourcePoint" />
            <mxPoint x="720" y="240" as="targetPoint" />
          </mxGeometry>
        </mxCell>
        <mxCell id="h5w_cuXaBeAwEYULJlHb-103" value="N" style="edgeLabel;html=1;align=center;verticalAlign=middle;resizable=0;points=[];" vertex="1" connectable="0" parent="h5w_cuXaBeAwEYULJlHb-102">
          <mxGeometry x="0.6971" y="1" relative="1" as="geometry">
            <mxPoint x="-14" y="1" as="offset" />
          </mxGeometry>
        </mxCell>
        <mxCell id="h5w_cuXaBeAwEYULJlHb-105" value="buys" style="shape=rhombus;perimeter=rhombusPerimeter;whiteSpace=wrap;html=1;align=center;rotation=0;direction=east;" vertex="1" parent="1">
          <mxGeometry x="240" y="320" width="120" height="60" as="geometry" />
        </mxCell>
        <mxCell id="h5w_cuXaBeAwEYULJlHb-107" value="" style="endArrow=none;html=1;rounded=0;exitX=0;exitY=0.5;exitDx=0;exitDy=0;entryX=1;entryY=1;entryDx=0;entryDy=0;" edge="1" parent="1" source="h5w_cuXaBeAwEYULJlHb-105" target="h5w_cuXaBeAwEYULJlHb-1">
          <mxGeometry relative="1" as="geometry">
            <mxPoint x="197.57359312880726" y="377.57359312880726" as="sourcePoint" />
            <mxPoint x="350" y="360" as="targetPoint" />
          </mxGeometry>
        </mxCell>
        <mxCell id="h5w_cuXaBeAwEYULJlHb-114" value="1" style="edgeLabel;html=1;align=center;verticalAlign=middle;resizable=0;points=[];" vertex="1" connectable="0" parent="h5w_cuXaBeAwEYULJlHb-107">
          <mxGeometry x="0.8297" y="-1" relative="1" as="geometry">
            <mxPoint x="17" y="4" as="offset" />
          </mxGeometry>
        </mxCell>
        <mxCell id="h5w_cuXaBeAwEYULJlHb-108" value="" style="endArrow=none;html=1;rounded=0;exitX=0;exitY=1;exitDx=0;exitDy=0;entryX=1;entryY=0.5;entryDx=0;entryDy=0;" edge="1" parent="1" source="h5w_cuXaBeAwEYULJlHb-97" target="h5w_cuXaBeAwEYULJlHb-105">
          <mxGeometry relative="1" as="geometry">
            <mxPoint x="273" y="268" as="sourcePoint" />
            <mxPoint x="255" y="200" as="targetPoint" />
          </mxGeometry>
        </mxCell>
        <mxCell id="h5w_cuXaBeAwEYULJlHb-115" value="N" style="edgeLabel;html=1;align=center;verticalAlign=middle;resizable=0;points=[];" vertex="1" connectable="0" parent="h5w_cuXaBeAwEYULJlHb-108">
          <mxGeometry x="-0.7123" y="2" relative="1" as="geometry">
            <mxPoint x="-15" y="-2" as="offset" />
          </mxGeometry>
        </mxCell>
        <mxCell id="h5w_cuXaBeAwEYULJlHb-109" value="contains" style="shape=rhombus;perimeter=rhombusPerimeter;whiteSpace=wrap;html=1;align=center;rotation=0;direction=east;" vertex="1" parent="1">
          <mxGeometry x="520" y="220" width="120" height="60" as="geometry" />
        </mxCell>
        <mxCell id="h5w_cuXaBeAwEYULJlHb-110" value="" style="endArrow=none;html=1;rounded=0;exitX=1;exitY=0.5;exitDx=0;exitDy=0;entryX=0;entryY=0.5;entryDx=0;entryDy=0;" edge="1" parent="1" source="h5w_cuXaBeAwEYULJlHb-109" target="h5w_cuXaBeAwEYULJlHb-45">
          <mxGeometry relative="1" as="geometry">
            <mxPoint x="540" y="240" as="sourcePoint" />
            <mxPoint x="700" y="240" as="targetPoint" />
          </mxGeometry>
        </mxCell>
        <mxCell id="h5w_cuXaBeAwEYULJlHb-113" value="1" style="edgeLabel;html=1;align=center;verticalAlign=middle;resizable=0;points=[];" vertex="1" connectable="0" parent="h5w_cuXaBeAwEYULJlHb-110">
          <mxGeometry x="0.2965" y="-2" relative="1" as="geometry">
            <mxPoint x="-5" y="-12" as="offset" />
          </mxGeometry>
        </mxCell>
        <mxCell id="h5w_cuXaBeAwEYULJlHb-111" value="" style="endArrow=none;html=1;rounded=0;exitX=1;exitY=0.5;exitDx=0;exitDy=0;entryX=0;entryY=0.5;entryDx=0;entryDy=0;" edge="1" parent="1">
          <mxGeometry relative="1" as="geometry">
            <mxPoint x="487" y="249.83" as="sourcePoint" />
            <mxPoint x="520" y="249.83" as="targetPoint" />
          </mxGeometry>
        </mxCell>
        <mxCell id="h5w_cuXaBeAwEYULJlHb-112" value="1" style="edgeLabel;html=1;align=center;verticalAlign=middle;resizable=0;points=[];" vertex="1" connectable="0" parent="h5w_cuXaBeAwEYULJlHb-111">
          <mxGeometry x="-0.4549" relative="1" as="geometry">
            <mxPoint x="4" y="-10" as="offset" />
          </mxGeometry>
        </mxCell>
        <mxCell id="h5w_cuXaBeAwEYULJlHb-118" style="edgeStyle=orthogonalEdgeStyle;rounded=0;orthogonalLoop=1;jettySize=auto;html=1;entryX=0.5;entryY=0;entryDx=0;entryDy=0;endArrow=none;endFill=0;" edge="1" parent="1" source="h5w_cuXaBeAwEYULJlHb-116" target="h5w_cuXaBeAwEYULJlHb-97">
          <mxGeometry relative="1" as="geometry">
            <Array as="points">
              <mxPoint x="437" y="160" />
            </Array>
          </mxGeometry>
        </mxCell>
        <mxCell id="h5w_cuXaBeAwEYULJlHb-116" value="id" style="ellipse;whiteSpace=wrap;html=1;align=center;" vertex="1" parent="1">
          <mxGeometry x="450" y="140" width="100" height="40" as="geometry" />
        </mxCell>
        <mxCell id="h5w_cuXaBeAwEYULJlHb-119" style="edgeStyle=orthogonalEdgeStyle;rounded=0;orthogonalLoop=1;jettySize=auto;html=1;entryX=0.5;entryY=0;entryDx=0;entryDy=0;endArrow=none;endFill=0;" edge="1" parent="1" source="h5w_cuXaBeAwEYULJlHb-117" target="h5w_cuXaBeAwEYULJlHb-97">
          <mxGeometry relative="1" as="geometry">
            <Array as="points">
              <mxPoint x="437" y="90" />
            </Array>
          </mxGeometry>
        </mxCell>
        <mxCell id="h5w_cuXaBeAwEYULJlHb-117" value="&lt;div&gt;status&lt;/div&gt;" style="ellipse;whiteSpace=wrap;html=1;align=center;" vertex="1" parent="1">
          <mxGeometry x="450" y="70" width="100" height="40" as="geometry" />
        </mxCell>
      </root>
    </mxGraphModel>
  </diagram>
</mxfile>
